<svg width="293" height="83" viewBox="0 0 293 83" fill="none" xmlns="http://www.w3.org/2000/svg">
<path d="M83.4784 27.4758V31.4907H90.9583V35.3585H83.4784V42.9048H78.8608V23.4609H91.5851V27.4758H83.4784Z" fill="#222229"/>
<path d="M110.369 38.7848C109.972 39.7517 109.408 40.5715 108.697 41.2652C107.966 41.9588 107.088 42.4843 106.065 42.8627C105.041 43.2411 103.892 43.4302 102.638 43.4302C101.364 43.4302 100.214 43.2411 99.1906 42.8627C98.1669 42.4843 97.3102 41.9378 96.5998 41.2652C95.8895 40.5925 95.3462 39.7517 94.9701 38.7848C94.594 37.8178 94.406 36.7668 94.406 35.5897V23.4819H99.0444V35.2113C99.0444 35.7368 99.1071 36.2413 99.2533 36.7248C99.3996 37.2082 99.6085 37.6286 99.8801 38.007C100.152 38.3854 100.528 38.6797 101.008 38.8899C101.468 39.1001 102.032 39.2262 102.68 39.2262C103.328 39.2262 103.892 39.1211 104.351 38.8899C104.811 38.6797 105.187 38.3643 105.48 38.007C105.772 37.6286 105.981 37.2082 106.106 36.7248C106.232 36.2413 106.294 35.7368 106.294 35.2113V23.4819H110.954V35.5897C110.954 36.7458 110.766 37.8178 110.369 38.7848Z" fill="#222229"/>
<path d="M122.989 27.4758V42.9048H118.329V27.4758H112.876V23.4609H128.463V27.4758H122.989Z" fill="#222229"/>
<path d="M146.368 38.7848C145.971 39.7517 145.407 40.5715 144.697 41.2652C143.986 41.9588 143.088 42.4843 142.064 42.8627C141.04 43.2411 139.891 43.4302 138.637 43.4302C137.363 43.4302 136.214 43.2411 135.19 42.8627C134.166 42.4843 133.31 41.9378 132.599 41.2652C131.889 40.5925 131.346 39.7517 130.97 38.7848C130.593 37.8178 130.405 36.7668 130.405 35.5897V23.4819H135.044V35.2113C135.044 35.7368 135.106 36.2413 135.253 36.7248C135.399 37.2082 135.608 37.6286 135.88 38.007C136.151 38.3854 136.527 38.6797 137.008 38.8899C137.467 39.1001 138.032 39.2262 138.679 39.2262C139.327 39.2262 139.891 39.1211 140.351 38.8899C140.81 38.6797 141.187 38.3643 141.479 38.007C141.772 37.6286 141.98 37.2082 142.106 36.7248C142.231 36.2413 142.294 35.7368 142.294 35.2113V23.4819H146.953V35.5897C146.953 36.7458 146.765 37.8178 146.368 38.7848Z" fill="#222229"/>
<path d="M161.077 42.9048L156.878 35.1903H155.29V42.9048H150.735V23.4609H158.111C159.03 23.4609 159.949 23.566 160.827 23.7552C161.704 23.9444 162.498 24.2807 163.209 24.7222C163.919 25.1846 164.462 25.7942 164.88 26.5299C165.298 27.2866 165.507 28.2115 165.507 29.3256C165.507 30.6499 165.152 31.743 164.441 32.6468C163.731 33.5507 162.749 34.1813 161.495 34.5597L166.552 42.8838H161.077V42.9048ZM160.889 29.4307C160.889 28.9683 160.785 28.6109 160.597 28.3166C160.409 28.0434 160.158 27.8122 159.866 27.665C159.573 27.5179 159.218 27.4128 158.842 27.3497C158.466 27.2866 158.111 27.2656 157.755 27.2656H155.269V31.785H157.484C157.86 31.785 158.257 31.743 158.654 31.6799C159.051 31.6168 159.427 31.5117 159.74 31.3436C160.075 31.1754 160.346 30.9442 160.555 30.6289C160.785 30.3346 160.889 29.9352 160.889 29.4307Z" fill="#222229"/>
<path d="M168.829 42.9048V23.4609H181.804V27.4128H173.321V31.0913H181.344V34.854H173.321V38.8899H182.305V42.9048H168.829Z" fill="#222229"/>
<path d="M91.0628 71.9556V63.8207H83.5201V71.9556H78.8608V52.5117H83.5201V59.8689H91.0628V52.5117H95.7221V71.9556H91.0628Z" fill="#222229"/>
<path d="M99.7129 71.9556V52.5117H112.709V56.4635H104.226V60.1631H112.249V63.9258H104.226V67.9617H113.21V71.9766H99.7129V71.9556Z" fill="#222229"/>
<path d="M129.382 71.9556L127.877 68.1299H120.397L118.977 71.9556H113.899L122.006 52.5117H126.54L134.563 71.9556H129.382ZM124.2 57.7037L121.735 64.3672H126.603L124.2 57.7037Z" fill="#222229"/>
<path d="M136.172 71.9556V52.5117H140.873V67.8566H148.353V71.9556H136.172Z" fill="#222229"/>
<path d="M156.648 56.5266V71.9556H151.988V56.5266H146.535V52.5117H162.122V56.5266H156.648Z" fill="#222229"/>
<path d="M176.434 71.9556V63.8207H168.891V71.9556H164.232V52.5117H168.891V59.8688H176.434V52.5117H181.093V71.9556H176.434Z" fill="#222229"/>
<path d="M195.301 57.5776C194.904 57.0732 194.382 56.6527 193.734 56.3585C193.086 56.0642 192.46 55.896 191.874 55.896C191.561 55.896 191.248 55.917 190.934 55.9801C190.621 56.0432 190.328 56.1483 190.078 56.2954C189.827 56.4425 189.618 56.6528 189.43 56.905C189.263 57.1572 189.179 57.4725 189.179 57.8509C189.179 58.1872 189.242 58.4605 189.388 58.6707C189.534 58.8809 189.722 59.0911 189.994 59.2383C190.266 59.4064 190.579 59.5536 190.934 59.7007C191.289 59.8478 191.707 59.974 192.167 60.1211C192.815 60.3313 193.504 60.5836 194.215 60.8568C194.925 61.1301 195.573 61.4664 196.158 61.9078C196.743 62.3493 197.223 62.8958 197.599 63.5474C197.975 64.1991 198.163 64.9978 198.163 65.9858C198.163 67.0999 197.955 68.0668 197.558 68.8866C197.14 69.7064 196.596 70.379 195.907 70.9046C195.217 71.4301 194.424 71.8295 193.525 72.0817C192.627 72.3339 191.707 72.4601 190.767 72.4601C189.388 72.4601 188.051 72.2078 186.756 71.7243C185.46 71.2409 184.395 70.5472 183.538 69.6433L186.588 66.5113C187.069 67.0999 187.675 67.5833 188.448 67.9827C189.221 68.3821 189.994 68.5713 190.746 68.5713C191.101 68.5713 191.436 68.5293 191.749 68.4662C192.083 68.4031 192.355 68.277 192.606 68.1088C192.856 67.9407 193.045 67.7305 193.191 67.4572C193.337 67.184 193.4 66.8476 193.4 66.4693C193.4 66.1119 193.316 65.7966 193.128 65.5444C192.94 65.2921 192.689 65.0609 192.355 64.8507C192.021 64.6405 191.603 64.4513 191.101 64.2831C190.6 64.115 190.036 63.9258 189.388 63.7156C188.761 63.5054 188.155 63.2742 187.57 63.0009C186.985 62.7276 186.442 62.3703 185.982 61.9499C185.523 61.5295 185.147 61.004 184.854 60.3944C184.562 59.7848 184.436 59.0281 184.436 58.1662C184.436 57.0942 184.645 56.1693 185.084 55.3915C185.523 54.6138 186.087 53.9832 186.797 53.4997C187.508 52.9952 188.302 52.6379 189.2 52.4066C190.099 52.1754 190.997 52.0703 191.895 52.0703C192.982 52.0703 194.11 52.2805 195.238 52.6799C196.367 53.0793 197.37 53.6679 198.226 54.4666L195.301 57.5776Z" fill="#222229"/>
<path d="M215.881 58.502C215.881 59.6371 215.672 60.604 215.254 61.3818C214.837 62.1595 214.272 62.7902 213.562 63.2526C212.852 63.7361 212.037 64.0724 211.097 64.3036C210.177 64.5138 209.195 64.64 208.213 64.64H205.894V71.9761H201.235V52.5322H208.339C209.383 52.5322 210.386 52.6373 211.306 52.8475C212.225 53.0577 213.019 53.3941 213.708 53.8565C214.398 54.319 214.92 54.9285 215.317 55.7063C215.672 56.463 215.881 57.3879 215.881 58.502ZM211.201 58.544C211.201 58.0816 211.118 57.7032 210.93 57.4089C210.741 57.1147 210.512 56.8834 210.198 56.7153C209.885 56.5471 209.53 56.442 209.154 56.379C208.757 56.3159 208.36 56.2949 207.942 56.2949H205.894V60.8773H207.858C208.297 60.8773 208.715 60.8353 209.112 60.7722C209.509 60.7091 209.864 60.562 210.198 60.3938C210.512 60.2047 210.762 59.9734 210.95 59.6581C211.118 59.3638 211.201 58.9855 211.201 58.544Z" fill="#222229"/>
<path d="M230.152 71.9556L228.648 68.1299H221.168L219.747 71.9556H214.67L222.777 52.5117H227.311L235.334 71.9556H230.152ZM224.97 57.7037L222.505 64.3672H227.373L224.97 57.7037Z" fill="#222229"/>
<path d="M250.293 71.6188C249.039 72.1864 247.598 72.4807 245.947 72.4807C244.464 72.4807 243.085 72.2284 241.81 71.7449C240.536 71.2615 239.449 70.5468 238.53 69.6429C237.61 68.739 236.879 67.646 236.336 66.3848C235.814 65.1235 235.542 63.7362 235.542 62.2017C235.542 60.6462 235.814 59.2378 236.357 57.9766C236.9 56.7154 237.631 55.6434 238.572 54.7605C239.512 53.8776 240.619 53.184 241.894 52.7215C243.168 52.2381 244.547 52.0068 246.01 52.0068C247.368 52.0068 248.726 52.2591 250.042 52.7425C251.359 53.226 252.424 53.9407 253.239 54.8656L250.063 58.0607C249.624 57.4511 249.06 57.0097 248.35 56.7154C247.639 56.4211 246.908 56.274 246.156 56.274C245.341 56.274 244.589 56.4211 243.899 56.7364C243.21 57.0307 242.625 57.4511 242.144 57.9766C241.643 58.5021 241.267 59.1327 240.995 59.8474C240.724 60.5621 240.577 61.3609 240.577 62.2227C240.577 63.1056 240.724 63.9044 240.995 64.6401C241.267 65.3758 241.643 66.0064 242.124 66.5109C242.604 67.0364 243.189 67.4358 243.858 67.7301C244.526 68.0243 245.258 68.1715 246.072 68.1715C246.992 68.1715 247.807 67.9823 248.496 67.625C249.186 67.2676 249.75 66.7841 250.168 66.1956L253.406 69.2645C252.612 70.2525 251.547 71.0513 250.293 71.6188Z" fill="#222229"/>
<path d="M255.454 71.9551V52.5112H268.45V56.4631H259.946V60.1626H267.969V63.9253H259.946V67.9612H268.93V71.9761H255.454V71.9551Z" fill="#222229"/>
<path d="M282.219 57.5772C281.822 57.0727 281.299 56.6523 280.652 56.358C280.004 56.0637 279.377 55.8955 278.792 55.8955C278.479 55.8955 278.165 55.9165 277.852 55.9796C277.538 56.0427 277.246 56.1478 276.995 56.2949C276.744 56.4421 276.535 56.6523 276.347 56.9045C276.18 57.1567 276.097 57.4721 276.097 57.8504C276.097 58.1867 276.159 58.46 276.306 58.6702C276.452 58.8804 276.64 59.0906 276.912 59.2378C277.183 59.4059 277.497 59.5531 277.852 59.7002C278.207 59.8474 278.625 59.9735 279.084 60.1206C279.732 60.3308 280.422 60.5831 281.132 60.8563C281.842 61.1296 282.49 61.4659 283.075 61.9073C283.66 62.3488 284.141 62.8953 284.517 63.5469C284.893 64.1986 285.081 64.9973 285.081 65.9853C285.081 67.0994 284.872 68.0663 284.475 68.8861C284.057 69.7059 283.514 70.3785 282.824 70.9041C282.135 71.4296 281.341 71.829 280.443 72.0812C279.544 72.3334 278.625 72.4596 277.685 72.4596C276.306 72.4596 274.968 72.2073 273.673 71.7239C272.378 71.2404 271.312 70.5467 270.455 69.6428L273.506 66.5108C273.986 67.0994 274.592 67.5828 275.365 67.9822C276.139 68.3816 276.912 68.5708 277.664 68.5708C278.019 68.5708 278.353 68.5288 278.667 68.4657C279.001 68.4026 279.273 68.2765 279.523 68.1083C279.774 67.9402 279.962 67.73 280.108 67.4567C280.255 67.1835 280.317 66.8471 280.317 66.4688C280.317 66.1114 280.234 65.7961 280.046 65.5439C279.858 65.2916 279.607 65.0604 279.273 64.8502C278.938 64.64 278.52 64.4508 278.019 64.2826C277.517 64.1145 276.953 63.9253 276.306 63.7151C275.679 63.5049 275.073 63.2737 274.488 63.0004C273.903 62.7271 273.36 62.3698 272.9 61.9494C272.44 61.529 272.064 61.0035 271.772 60.3939C271.479 59.7843 271.354 59.0276 271.354 58.1657C271.354 57.0937 271.563 56.1688 272.002 55.391C272.44 54.6133 273.004 53.9827 273.715 53.4992C274.425 52.9947 275.219 52.6374 276.118 52.4062C277.016 52.1749 277.914 52.0698 278.813 52.0698C279.899 52.0698 281.028 52.28 282.156 52.6794C283.284 53.0788 284.287 53.6674 285.144 54.4661L282.219 57.5772Z" fill="#222229"/>
<path d="M293 69.5383C293 70.316 292.729 70.9466 292.185 71.4511C291.642 71.9556 291.015 72.2289 290.263 72.2289C289.887 72.2289 289.532 72.1658 289.177 72.0187C288.842 71.8715 288.55 71.7034 288.299 71.4511C288.048 71.2199 287.84 70.9256 287.693 70.6103C287.547 70.295 287.484 69.9376 287.484 69.5593C287.484 69.2019 287.547 68.8446 287.693 68.5083C287.84 68.1719 288.048 67.8987 288.299 67.6464C288.55 67.3942 288.842 67.205 289.177 67.0579C289.511 66.9107 289.866 66.8477 290.263 66.8477C291.015 66.8477 291.642 67.0999 292.185 67.6254C292.729 68.1299 293 68.7815 293 69.5383Z" fill="#E94A51"/>
<path d="M19.3135 0.738281C16.5764 26.8666 13.8602 52.9949 11.1232 79.1022L22.4475 82.4655L59.0115 58.7545C61.456 51.7547 63.9215 44.7339 66.366 37.7341L19.3135 0.738281Z" fill="#B8D6F1"/>
<path d="M17.1825 20.4766L66.3244 37.7133L17.1825 20.4766Z" fill="#93B423"/>
<path d="M66.345 37.7343L17.2031 20.4976C15.1764 40.0465 13.1497 59.5744 11.1439 79.1023L59.0113 58.7336C61.435 51.7338 63.8795 44.734 66.345 37.7343Z" fill="#222229"/>
<path d="M17.1823 20.4766L3.1418 16.6299L0.592773 29.2631L11.1023 79.1024C13.1499 59.5535 15.1557 40.0255 17.1823 20.4766Z" fill="#E94647"/>
</svg>
